{
  "accessors": [
    {
      "name": "Cylinder02_1_0_positions",
      "componentType": 5126,
      "count": 98,
      "min": [
        -278.3726501464844,
        30.706790924072266,
        1.8825199604034424
      ],
      "max": [
        294.9409484863281,
        274.7439270019531,
        226.48155212402344
      ],
      "type": "VEC3",
      "bufferView": 0,
      "byteOffset": 0
    },
    {
      "name": "Cylinder02_1_0_normals",
      "componentType": 5126,
      "count": 98,
      "min": [
        -0.9856436848640442,
        0.02438991144299507,
        -0.09493961185216904
      ],
      "max": [
        0.9996263384819031,
        0.3095816373825073,
        0.0772397518157959
      ],
      "type": "VEC3",
      "bufferView": 1,
      "byteOffset": 0
    },
    {
      "name": "Cylinder02_1_0_texcoords",
      "componentType": 5126,
      "count": 98,
      "min": [
        0.0005000000237487257,
        0.0005000000237487257
      ],
      "max": [
        0.9994999766349792,
        0.9994999766349792
      ],
      "type": "VEC2",
      "bufferView": 2,
      "byteOffset": 0
    },
    {
      "name": "Cylinder02_1_0_indices",
      "componentType": 5123,
      "count": 192,
      "min": [
        0
      ],
      "max": [
        97
      ],
      "type": "SCALAR",
      "bufferView": 3,
      "byteOffset": 0
    },
    {
      "name": "Cylinder02_1_1_positions",
      "componentType": 5126,
      "count": 666,
      "min": [
        -278.3726501464844,
        22.38821029663086,
        1.8825199604034424
      ],
      "max": [
        294.9409484863281,
        274.7439270019531,
        227.04934692382812
      ],
      "type": "VEC3",
      "bufferView": 0,
      "byteOffset": 1176
    },
    {
      "name": "Cylinder02_1_1_normals",
      "componentType": 5126,
      "count": 666,
      "min": [
        -0.17693054676055908,
        -0.999803364276886,
        -0.9999837875366211
      ],
      "max": [
        0.17732073366641998,
        0.9998310804367065,
        0.9999606609344482
      ],
      "type": "VEC3",
      "bufferView": 1,
      "byteOffset": 1176
    },
    {
      "name": "Cylinder02_1_1_texcoords",
      "componentType": 5126,
      "count": 666,
      "min": [
        -0.034949999302625656,
        0.008229999803006649
      ],
      "max": [
        0.9999099969863892,
        0.9837599992752075
      ],
      "type": "VEC2",
      "bufferView": 2,
      "byteOffset": 784
    },
    {
      "name": "Cylinder02_1_1_indices",
      "componentType": 5123,
      "count": 3072,
      "min": [
        0
      ],
      "max": [
        665
      ],
      "type": "SCALAR",
      "bufferView": 3,
      "byteOffset": 384
    },
    {
      "name": "Cylinder03_1_0_positions",
      "componentType": 5126,
      "count": 98,
      "min": [
        -218.13992309570312,
        -105.88916015625,
        169.92652893066406
      ],
      "max": [
        237.4639129638672,
        147.35035705566406,
        402.7872619628906
      ],
      "type": "VEC3",
      "bufferView": 0,
      "byteOffset": 9168
    },
    {
      "name": "Cylinder03_1_0_normals",
      "componentType": 5126,
      "count": 98,
      "min": [
        -0.98480623960495,
        -0.2367406040430069,
        -0.17392019927501678
      ],
      "max": [
        0.9989641308784485,
        0.2658289670944214,
        0.21685071289539337
      ],
      "type": "VEC3",
      "bufferView": 1,
      "byteOffset": 9168
    },
    {
      "name": "Cylinder03_1_0_texcoords",
      "componentType": 5126,
      "count": 98,
      "min": [
        0.0005000000237487257,
        0.0005000000237487257
      ],
      "max": [
        0.9994999766349792,
        0.9994999766349792
      ],
      "type": "VEC2",
      "bufferView": 2,
      "byteOffset": 6112
    },
    {
      "name": "Cylinder03_1_0_indices",
      "componentType": 5123,
      "count": 192,
      "min": [
        0
      ],
      "max": [
        97
      ],
      "type": "SCALAR",
      "bufferView": 3,
      "byteOffset": 6528
    },
    {
      "name": "Cylinder03_1_1_positions",
      "componentType": 5126,
      "count": 654,
      "min": [
        -218.13992309570312,
        -105.88916015625,
        169.92652893066406
      ],
      "max": [
        237.4639129638672,
        147.35035705566406,
        402.7872619628906
      ],
      "type": "VEC3",
      "bufferView": 0,
      "byteOffset": 10344
    },
    {
      "name": "Cylinder03_1_1_normals",
      "componentType": 5126,
      "count": 654,
      "min": [
        -0.2253291755914688,
        -0.9910767078399658,
        -0.9976420998573303
      ],
      "max": [
        0.2696593999862671,
        0.9847606420516968,
        0.9952754378318787
      ],
      "type": "VEC3",
      "bufferView": 1,
      "byteOffset": 10344
    },
    {
      "name": "Cylinder03_1_1_texcoords",
      "componentType": 5126,
      "count": 654,
      "min": [
        -0.028449999168515205,
        0.002580000087618828
      ],
      "max": [
        0.9815400242805481,
        0.9965900182723999
      ],
      "type": "VEC2",
      "bufferView": 2,
      "byteOffset": 6896
    },
    {
      "name": "Cylinder03_1_1_indices",
      "componentType": 5123,
      "count": 3072,
      "min": [
        0
      ],
      "max": [
        653
      ],
      "type": "SCALAR",
      "bufferView": 3,
      "byteOffset": 6912
    },
    {
      "name": "Cylinder01_1_0_positions",
      "componentType": 5126,
      "count": 98,
      "min": [
        -299.74725341796875,
        -244.6875457763672,
        8.244750022888184
      ],
      "max": [
        281.5623474121094,
        38.52561950683594,
        254.37986755371094
      ],
      "type": "VEC3",
      "bufferView": 0,
      "byteOffset": 18192
    },
    {
      "name": "Cylinder01_1_0_normals",
      "componentType": 5126,
      "count": 98,
      "min": [
        -0.995182454586029,
        -0.2663595378398895,
        -0.1821596622467041
      ],
      "max": [
        0.9986433982849121,
        0.1836100071668625,
        0.18888023495674133
      ],
      "type": "VEC3",
      "bufferView": 1,
      "byteOffset": 18192
    },
    {
      "name": "Cylinder01_1_0_texcoords",
      "componentType": 5126,
      "count": 98,
      "min": [
        0.0005000000237487257,
        0.0005000000237487257
      ],
      "max": [
        0.9994999766349792,
        0.9994999766349792
      ],
      "type": "VEC2",
      "bufferView": 2,
      "byteOffset": 12128
    },
    {
      "name": "Cylinder01_1_0_indices",
      "componentType": 5123,
      "count": 192,
      "min": [
        0
      ],
      "max": [
        97
      ],
      "type": "SCALAR",
      "bufferView": 3,
      "byteOffset": 13056
    },
    {
      "name": "Cylinder01_1_1_positions",
      "componentType": 5126,
      "count": 669,
      "min": [
        -299.74725341796875,
        -244.6875457763672,
        3.713099956512451
      ],
      "max": [
        281.5623474121094,
        38.52561950683594,
        254.37986755371094
      ],
      "type": "VEC3",
      "bufferView": 0,
      "byteOffset": 19368
    },
    {
      "name": "Cylinder01_1_1_normals",
      "componentType": 5126,
      "count": 669,
      "min": [
        -0.13997995853424072,
        -0.9987834095954895,
        -0.9999627470970154
      ],
      "max": [
        0.19570988416671753,
        0.995094358921051,
        0.9986521601676941
      ],
      "type": "VEC3",
      "bufferView": 1,
      "byteOffset": 19368
    },
    {
      "name": "Cylinder01_1_1_texcoords",
      "componentType": 5126,
      "count": 669,
      "min": [
        -0.03392999991774559,
        0.0005000000237487257
      ],
      "max": [
        0.9995599985122681,
        0.9994999766349792
      ],
      "type": "VEC2",
      "bufferView": 2,
      "byteOffset": 12912
    },
    {
      "name": "Cylinder01_1_1_indices",
      "componentType": 5123,
      "count": 3072,
      "min": [
        0
      ],
      "max": [
        668
      ],
      "type": "SCALAR",
      "bufferView": 3,
      "byteOffset": 13440
    }
  ],
  "asset": {
    "generator": "obj2gltf",
    "version": "2.0"
  },
  "buffers": [
    {
      "name": "fre005",
      "byteLength": 154028,
      "uri": "data:application/octet-stream;base64,"
    }
  ],
  "bufferViews": [
    {
      "name": "bufferView_0",
      "buffer": 0,
      "byteLength": 27396,
      "byteOffset": 0,
      "byteStride": 12,
      "target": 34962
    },
    {
      "name": "bufferView_1",
      "buffer": 0,
      "byteLength": 27396,
      "byteOffset": 27396,
      "byteStride": 12,
      "target": 34962
    },
    {
      "name": "bufferView_2",
      "buffer": 0,
      "byteLength": 18264,
      "byteOffset": 54792,
      "byteStride": 8,
      "target": 34962
    },
    {
      "name": "bufferView_3",
      "buffer": 0,
      "byteLength": 19584,
      "byteOffset": 73056,
      "target": 34963
    },
    {
      "buffer": 0,
      "byteOffset": 92640,
      "byteLength": 30218
    },
    {
      "buffer": 0,
      "byteOffset": 122858,
      "byteLength": 31169
    }
  ],
  "images": [
    {
      "name": "FRE00503",
      "mimeType": "image/jpeg",
      "bufferView": 4
    },
    {
      "name": "FRE00502",
      "mimeType": "image/jpeg",
      "bufferView": 5
    }
  ],
  "materials": [
    {
      "name": "fre005_wood2",
      "pbrMetallicRoughness": {
        "baseColorTexture": {
          "index": 0
        },
        "baseColorFactor": [
          1,
          1,
          1,
          1
        ],
        "metallicFactor": 0,
        "roughnessFactor": 0.996
      },
      "emissiveFactor": [
        0,
        0,
        0
      ],
      "alphaMode": "OPAQUE",
      "doubleSided": false
    },
    {
      "name": "fre005_wood1",
      "pbrMetallicRoughness": {
        "baseColorTexture": {
          "index": 1
        },
        "baseColorFactor": [
          1,
          1,
          1,
          1
        ],
        "metallicFactor": 0,
        "roughnessFactor": 0.992
      },
      "emissiveFactor": [
        0,
        0,
        0
      ],
      "alphaMode": "OPAQUE",
      "doubleSided": false
    }
  ],
  "meshes": [
    {
      "name": "Cylinder02_1",
      "primitives": [
        {
          "attributes": {
            "POSITION": 0,
            "NORMAL": 1,
            "TEXCOORD_0": 2
          },
          "indices": 3,
          "material": 0,
          "mode": 4
        },
        {
          "attributes": {
            "POSITION": 4,
            "NORMAL": 5,
            "TEXCOORD_0": 6
          },
          "indices": 7,
          "material": 1,
          "mode": 4
        }
      ]
    },
    {
      "name": "Cylinder03_1",
      "primitives": [
        {
          "attributes": {
            "POSITION": 8,
            "NORMAL": 9,
            "TEXCOORD_0": 10
          },
          "indices": 11,
          "material": 0,
          "mode": 4
        },
        {
          "attributes": {
            "POSITION": 12,
            "NORMAL": 13,
            "TEXCOORD_0": 14
          },
          "indices": 15,
          "material": 1,
          "mode": 4
        }
      ]
    },
    {
      "name": "Cylinder01_1",
      "primitives": [
        {
          "attributes": {
            "POSITION": 16,
            "NORMAL": 17,
            "TEXCOORD_0": 18
          },
          "indices": 19,
          "material": 0,
          "mode": 4
        },
        {
          "attributes": {
            "POSITION": 20,
            "NORMAL": 21,
            "TEXCOORD_0": 22
          },
          "indices": 23,
          "material": 1,
          "mode": 4
        }
      ]
    }
  ],
  "nodes": [
    {
      "name": "Cylinder02",
      "mesh": 0
    },
    {
      "name": "Cylinder03",
      "mesh": 1
    },
    {
      "name": "Cylinder01",
      "mesh": 2
    }
  ],
  "samplers": [
    {
      "magFilter": 9729,
      "minFilter": 9986,
      "wrapS": 10497,
      "wrapT": 10497
    }
  ],
  "scene": 0,
  "scenes": [
    {
      "nodes": [
        0,
        1,
        2
      ]
    }
  ],
  "textures": [
    {
      "name": "FRE00503",
      "sampler": 0,
      "source": 0
    },
    {
      "name": "FRE00502",
      "sampler": 0,
      "source": 1
    }
  ]
}
