{
  "accessors": [
    {
      "name": "cranberry-christmastree_1_0_positions",
      "componentType": 5126,
      "count": 1157,
      "min": [
        -73.19737243652344,
        -0.000003999999989900971,
        -72.05883026123047
      ],
      "max": [
        62.35124588012695,
        161.58970642089844,
        70.24425506591797
      ],
      "type": "VEC3",
      "bufferView": 0,
      "byteOffset": 0
    },
    {
      "name": "cranberry-christmastree_1_0_normals",
      "componentType": 5126,
      "count": 1157,
      "min": [
        -0.9962170124053955,
        -1,
        -0.9996079206466675
      ],
      "max": [
        0.9927730560302734,
        1,
        0.9988663792610168
      ],
      "type": "VEC3",
      "bufferView": 1,
      "byteOffset": 0
    },
    {
      "name": "cranberry-christmastree_1_0_texcoords",
      "componentType": 5126,
      "count": 1157,
      "min": [
        0.005859000142663717,
        0.003321999916806817
      ],
      "max": [
        0.9979220032691956,
        0.9950519800186157
      ],
      "type": "VEC2",
      "bufferView": 2,
      "byteOffset": 0
    },
    {
      "name": "cranberry-christmastree_1_0_indices",
      "componentType": 5123,
      "count": 4026,
      "min": [
        0
      ],
      "max": [
        1156
      ],
      "type": "SCALAR",
      "bufferView": 3,
      "byteOffset": 0
    }
  ],
  "asset": {
    "generator": "obj2gltf",
    "version": "2.0"
  },
  "buffers": [
    {
      "name": "cranberry-christmastree",
      "byteLength": 45076,
      "uri": "data:application/octet-stream;base64,"
    }
  ],
  "bufferViews": [
    {
      "name": "bufferView_0",
      "buffer": 0,
      "byteLength": 13884,
      "byteOffset": 0,
      "byteStride": 12,
      "target": 34962
    },
    {
      "name": "bufferView_1",
      "buffer": 0,
      "byteLength": 13884,
      "byteOffset": 13884,
      "byteStride": 12,
      "target": 34962
    },
    {
      "name": "bufferView_2",
      "buffer": 0,
      "byteLength": 9256,
      "byteOffset": 27768,
      "byteStride": 8,
      "target": 34962
    },
    {
      "name": "bufferView_3",
      "buffer": 0,
      "byteLength": 8052,
      "byteOffset": 37024,
      "target": 34963
    }
  ],
  "materials": [
    {
      "name": "christmastree",
      "pbrMetallicRoughness": {
        "baseColorFactor": [
          0.64,
          0.64,
          0.64,
          1
        ],
        "metallicFactor": 0,
        "roughnessFactor": 0.903921569
      },
      "emissiveFactor": [
        0,
        0,
        0
      ],
      "alphaMode": "OPAQUE",
      "doubleSided": false
    }
  ],
  "meshes": [
    {
      "name": "cranberry-christmastree_1",
      "primitives": [
        {
          "attributes": {
            "POSITION": 0,
            "NORMAL": 1,
            "TEXCOORD_0": 2
          },
          "indices": 3,
          "material": 0,
          "mode": 4
        }
      ]
    }
  ],
  "nodes": [
    {
      "name": "cranberry-christmastree",
      "mesh": 0
    }
  ],
  "scene": 0,
  "scenes": [
    {
      "nodes": [
        0
      ]
    }
  ]
}
