{
  "accessors": [
    {
      "name": "Painting_mesh_1_0_positions",
      "componentType": 5126,
      "count": 118,
      "min": [
        -160.51673889160156,
        55.051300048828125,
        -9.219993591308594
      ],
      "max": [
        105.46263122558594,
        376.0847473144531,
        9.225860595703125
      ],
      "type": "VEC3",
      "bufferView": 0,
      "byteOffset": 0
    },
    {
      "name": "Painting_mesh_1_0_normals",
      "componentType": 5126,
      "count": 118,
      "min": [
        -0.7700448036193848,
        -0.6379898190498352,
        -1
      ],
      "max": [
        0.7700448036193848,
        0.6379898190498352,
        1
      ],
      "type": "VEC3",
      "bufferView": 1,
      "byteOffset": 0
    },
    {
      "name": "Painting_mesh_1_0_texcoords",
      "componentType": 5126,
      "count": 118,
      "min": [
        0.013333999551832676,
        0.0068870000541210175
      ],
      "max": [
        0.9731220006942749,
        0.9878630042076111
      ],
      "type": "VEC2",
      "bufferView": 2,
      "byteOffset": 0
    },
    {
      "name": "Painting_mesh_1_0_indices",
      "componentType": 5123,
      "count": 396,
      "min": [
        0
      ],
      "max": [
        117
      ],
      "type": "SCALAR",
      "bufferView": 3,
      "byteOffset": 0
    }
  ],
  "asset": {
    "generator": "obj2gltf",
    "version": "2.0"
  },
  "buffers": [
    {
      "name": "Painting",
      "byteLength": 3088836,
      "uri": "data:application/octet-stream;base64,"
    }
  ],
  "bufferViews": [
    {
      "name": "bufferView_0",
      "buffer": 0,
      "byteLength": 1416,
      "byteOffset": 0,
      "byteStride": 12,
      "target": 34962
    },
    {
      "name": "bufferView_1",
      "buffer": 0,
      "byteLength": 1416,
      "byteOffset": 1416,
      "byteStride": 12,
      "target": 34962
    },
    {
      "name": "bufferView_2",
      "buffer": 0,
      "byteLength": 944,
      "byteOffset": 2832,
      "byteStride": 8,
      "target": 34962
    },
    {
      "name": "bufferView_3",
      "buffer": 0,
      "byteLength": 792,
      "byteOffset": 3776,
      "target": 34963
    },
    {
      "buffer": 0,
      "byteOffset": 4568,
      "byteLength": 3084267
    }
  ],
  "images": [
    {
      "name": "Paintingm",
      "mimeType": "image/jpeg",
      "bufferView": 4
    }
  ],
  "materials": [
    {
      "name": "lambert2SG",
      "pbrMetallicRoughness": {
        "baseColorTexture": {
          "index": 0
        },
        "baseColorFactor": [
          1,
          1,
          1,
          1
        ],
        "metallicFactor": 0,
        "roughnessFactor": 1
      },
      "emissiveFactor": [
        0,
        0,
        0
      ],
      "alphaMode": "OPAQUE",
      "doubleSided": false
    }
  ],
  "meshes": [
    {
      "name": "Painting_mesh_1",
      "primitives": [
        {
          "attributes": {
            "POSITION": 0,
            "NORMAL": 1,
            "TEXCOORD_0": 2
          },
          "indices": 3,
          "material": 0,
          "mode": 4
        }
      ]
    }
  ],
  "nodes": [
    {
      "name": "Painting_mesh",
      "mesh": 0
    }
  ],
  "samplers": [
    {
      "magFilter": 9729,
      "minFilter": 9986,
      "wrapS": 10497,
      "wrapT": 10497
    }
  ],
  "scene": 0,
  "scenes": [
    {
      "nodes": [
        0
      ]
    }
  ],
  "textures": [
    {
      "name": "Paintingm",
      "sampler": 0,
      "source": 0
    }
  ]
}
